<svg width="462" height="86" viewBox="0 0 462 86" fill="none" xmlns="http://www.w3.org/2000/svg">
<mask id="path-1-outside-1_17_4" maskUnits="userSpaceOnUse" x="0" y="0" width="462" height="73" fill="black">
<rect fill="white" width="462" height="73"/>
<path d="M13.28 53.344C11.5733 53.344 10.016 52.9173 8.608 52.064C7.2 51.2107 6.06933 50.08 5.216 48.672C4.40533 47.264 4 45.728 4 44.064V29.856H31.84V26.016H4V16.224H32.352C34.0587 16.224 35.616 16.6507 37.024 17.504C38.432 18.3573 39.5413 19.488 40.352 20.896C41.2053 22.304 41.632 23.84 41.632 25.504V53.344H13.28ZM13.792 43.552H31.84V38.432H13.792V43.552ZM59.87 53.344C58.206 53.344 56.67 52.9173 55.262 52.064C53.854 51.2107 52.7233 50.08 51.87 48.672C51.0167 47.264 50.59 45.728 50.59 44.064V4H60.446V43.552H67.934V53.344H59.87ZM94.4245 53.344L74.0085 16.224H85.2725L98.6485 40.864L112.024 16.224H123.288L102.809 53.344H94.4245ZM137.673 53.344C136.009 53.344 134.473 52.9173 133.065 52.064C131.657 51.2107 130.527 50.08 129.674 48.672C128.82 47.264 128.393 45.728 128.393 44.064V25.504C128.393 23.84 128.82 22.304 129.674 20.896C130.527 19.488 131.657 18.3573 133.065 17.504C134.473 16.6507 136.009 16.224 137.673 16.224H156.745C158.452 16.224 160.009 16.6507 161.417 17.504C162.826 18.3573 163.935 19.488 164.745 20.896C165.599 22.304 166.025 23.84 166.025 25.504V39.712H138.186V43.552H166.025V53.344H137.673ZM138.186 31.136H156.234V26.016H138.186V31.136ZM185.009 53.344C183.345 53.344 181.809 52.9173 180.401 52.064C178.993 51.2107 177.862 50.08 177.009 48.672C176.156 47.264 175.729 45.728 175.729 44.064V42.208H185.521V43.552H203.569V39.712H185.009C183.345 39.712 181.809 39.2853 180.401 38.432C178.993 37.5787 177.862 36.448 177.009 35.04C176.156 33.632 175.729 32.096 175.729 30.432V25.504C175.729 23.84 176.156 22.304 177.009 20.896C177.862 19.488 178.993 18.3573 180.401 17.504C181.809 16.6507 183.345 16.224 185.009 16.224H204.081C205.788 16.224 207.345 16.6507 208.753 17.504C210.161 18.3573 211.292 19.488 212.145 20.896C212.998 22.304 213.425 23.84 213.425 25.504V27.36H203.569V26.016H185.521V29.856H204.081C205.788 29.856 207.345 30.2827 208.753 31.136C210.161 31.9893 211.292 33.12 212.145 34.528C212.998 35.936 213.425 37.472 213.425 39.136V44.064C213.425 45.728 212.998 47.264 212.145 48.672C211.292 50.08 210.161 51.2107 208.753 52.064C207.345 52.9173 205.788 53.344 204.081 53.344H185.009ZM223.828 63.264V53.472H269.076V63.264H223.828ZM280.668 68.064V16.224H309.02C310.727 16.224 312.284 16.6507 313.692 17.504C315.1 18.3573 316.209 19.488 317.02 20.896C317.873 22.304 318.3 23.84 318.3 25.504V44.064C318.3 45.728 317.873 47.264 317.02 48.672C316.209 50.08 315.1 51.2107 313.692 52.064C312.284 52.9173 310.727 53.344 309.02 53.344H290.46V68.064H280.668ZM290.46 43.552H308.508V26.016H290.46V43.552ZM327.008 53.344V4.064H336.8V16.224H355.36C357.024 16.224 358.56 16.6507 359.968 17.504C361.376 18.3573 362.507 19.488 363.36 20.896C364.213 22.304 364.64 23.84 364.64 25.504V53.344H354.848V26.016H336.8V53.344H327.008ZM378.654 68V58.144H400.67V53.344H382.11C380.403 53.344 378.846 52.9173 377.438 52.064C376.03 51.2107 374.899 50.08 374.046 48.672C373.193 47.264 372.766 45.728 372.766 44.064V25.504C372.766 23.84 373.193 22.304 374.046 20.896C374.899 19.488 376.03 18.3573 377.438 17.504C378.846 16.6507 380.403 16.224 382.11 16.224H401.182C402.889 16.224 404.446 16.6507 405.854 17.504C407.262 18.3573 408.371 19.488 409.182 20.896C410.035 22.304 410.462 23.84 410.462 25.504V58.72C410.462 60.4267 410.035 61.984 409.182 63.392C408.371 64.8 407.262 65.9093 405.854 66.72C404.446 67.5733 402.889 68 401.182 68H378.654ZM382.558 43.552H400.67V26.016H382.558V43.552ZM428.715 53.344C427.008 53.344 425.451 52.9173 424.043 52.064C422.635 51.2107 421.504 50.08 420.651 48.672C419.84 47.264 419.435 45.728 419.435 44.064V29.856H447.275V26.016H419.435V16.224H447.787C449.494 16.224 451.051 16.6507 452.459 17.504C453.867 18.3573 454.976 19.488 455.787 20.896C456.64 22.304 457.067 23.84 457.067 25.504V53.344H428.715ZM429.227 43.552H447.275V38.432H429.227V43.552Z"/>
</mask>
<path d="M13.28 53.344C11.5733 53.344 10.016 52.9173 8.608 52.064C7.2 51.2107 6.06933 50.08 5.216 48.672C4.40533 47.264 4 45.728 4 44.064V29.856H31.84V26.016H4V16.224H32.352C34.0587 16.224 35.616 16.6507 37.024 17.504C38.432 18.3573 39.5413 19.488 40.352 20.896C41.2053 22.304 41.632 23.84 41.632 25.504V53.344H13.28ZM13.792 43.552H31.84V38.432H13.792V43.552ZM59.87 53.344C58.206 53.344 56.67 52.9173 55.262 52.064C53.854 51.2107 52.7233 50.08 51.87 48.672C51.0167 47.264 50.59 45.728 50.59 44.064V4H60.446V43.552H67.934V53.344H59.87ZM94.4245 53.344L74.0085 16.224H85.2725L98.6485 40.864L112.024 16.224H123.288L102.809 53.344H94.4245ZM137.673 53.344C136.009 53.344 134.473 52.9173 133.065 52.064C131.657 51.2107 130.527 50.08 129.674 48.672C128.82 47.264 128.393 45.728 128.393 44.064V25.504C128.393 23.84 128.82 22.304 129.674 20.896C130.527 19.488 131.657 18.3573 133.065 17.504C134.473 16.6507 136.009 16.224 137.673 16.224H156.745C158.452 16.224 160.009 16.6507 161.417 17.504C162.826 18.3573 163.935 19.488 164.745 20.896C165.599 22.304 166.025 23.84 166.025 25.504V39.712H138.186V43.552H166.025V53.344H137.673ZM138.186 31.136H156.234V26.016H138.186V31.136ZM185.009 53.344C183.345 53.344 181.809 52.9173 180.401 52.064C178.993 51.2107 177.862 50.08 177.009 48.672C176.156 47.264 175.729 45.728 175.729 44.064V42.208H185.521V43.552H203.569V39.712H185.009C183.345 39.712 181.809 39.2853 180.401 38.432C178.993 37.5787 177.862 36.448 177.009 35.04C176.156 33.632 175.729 32.096 175.729 30.432V25.504C175.729 23.84 176.156 22.304 177.009 20.896C177.862 19.488 178.993 18.3573 180.401 17.504C181.809 16.6507 183.345 16.224 185.009 16.224H204.081C205.788 16.224 207.345 16.6507 208.753 17.504C210.161 18.3573 211.292 19.488 212.145 20.896C212.998 22.304 213.425 23.84 213.425 25.504V27.36H203.569V26.016H185.521V29.856H204.081C205.788 29.856 207.345 30.2827 208.753 31.136C210.161 31.9893 211.292 33.12 212.145 34.528C212.998 35.936 213.425 37.472 213.425 39.136V44.064C213.425 45.728 212.998 47.264 212.145 48.672C211.292 50.08 210.161 51.2107 208.753 52.064C207.345 52.9173 205.788 53.344 204.081 53.344H185.009ZM223.828 63.264V53.472H269.076V63.264H223.828ZM280.668 68.064V16.224H309.02C310.727 16.224 312.284 16.6507 313.692 17.504C315.1 18.3573 316.209 19.488 317.02 20.896C317.873 22.304 318.3 23.84 318.3 25.504V44.064C318.3 45.728 317.873 47.264 317.02 48.672C316.209 50.08 315.1 51.2107 313.692 52.064C312.284 52.9173 310.727 53.344 309.02 53.344H290.46V68.064H280.668ZM290.46 43.552H308.508V26.016H290.46V43.552ZM327.008 53.344V4.064H336.8V16.224H355.36C357.024 16.224 358.56 16.6507 359.968 17.504C361.376 18.3573 362.507 19.488 363.36 20.896C364.213 22.304 364.64 23.84 364.64 25.504V53.344H354.848V26.016H336.8V53.344H327.008ZM378.654 68V58.144H400.67V53.344H382.11C380.403 53.344 378.846 52.9173 377.438 52.064C376.03 51.2107 374.899 50.08 374.046 48.672C373.193 47.264 372.766 45.728 372.766 44.064V25.504C372.766 23.84 373.193 22.304 374.046 20.896C374.899 19.488 376.03 18.3573 377.438 17.504C378.846 16.6507 380.403 16.224 382.11 16.224H401.182C402.889 16.224 404.446 16.6507 405.854 17.504C407.262 18.3573 408.371 19.488 409.182 20.896C410.035 22.304 410.462 23.84 410.462 25.504V58.72C410.462 60.4267 410.035 61.984 409.182 63.392C408.371 64.8 407.262 65.9093 405.854 66.72C404.446 67.5733 402.889 68 401.182 68H378.654ZM382.558 43.552H400.67V26.016H382.558V43.552ZM428.715 53.344C427.008 53.344 425.451 52.9173 424.043 52.064C422.635 51.2107 421.504 50.08 420.651 48.672C419.84 47.264 419.435 45.728 419.435 44.064V29.856H447.275V26.016H419.435V16.224H447.787C449.494 16.224 451.051 16.6507 452.459 17.504C453.867 18.3573 454.976 19.488 455.787 20.896C456.64 22.304 457.067 23.84 457.067 25.504V53.344H428.715ZM429.227 43.552H447.275V38.432H429.227V43.552Z" stroke="#D18150" stroke-width="8" mask="url(#path-1-outside-1_17_4)"/>
<path d="M18.928 85.344V73.824H28.064C28.5013 73.824 28.896 73.9306 29.248 74.144C29.6106 74.3573 29.8986 74.6453 30.112 75.008C30.336 75.36 30.448 75.7546 30.448 76.192V82.976C30.448 83.4026 30.336 83.7973 30.112 84.16C29.8986 84.5227 29.6106 84.8107 29.248 85.024C28.896 85.2373 28.5013 85.344 28.064 85.344H18.928ZM21.392 82.848H27.936V76.32H21.392V82.848Z" fill="#D48351"/>
<path d="M32.2717 85.344V73.824H42.9117V76.32H34.7837V78.336H41.3277V80.832H34.7837V82.848H42.9117V85.344H32.2717Z" fill="#D48351"/>
<path d="M46.8257 85.344C46.3991 85.344 46.0044 85.2373 45.6417 85.024C45.2791 84.8107 44.9911 84.5227 44.7777 84.16C44.5644 83.7973 44.4577 83.4026 44.4577 82.976V81.904H46.9377V82.848H53.4657V80.832H46.8257C46.3991 80.832 46.0044 80.7253 45.6417 80.512C45.2791 80.2986 44.9911 80.016 44.7777 79.664C44.5644 79.3013 44.4577 78.9013 44.4577 78.464V76.192C44.4577 75.7546 44.5644 75.36 44.7777 75.008C44.9911 74.6453 45.2791 74.3573 45.6417 74.144C46.0044 73.9306 46.3991 73.824 46.8257 73.824H53.6097C54.0364 73.824 54.4257 73.9306 54.7777 74.144C55.1404 74.3573 55.4284 74.6453 55.6417 75.008C55.8657 75.36 55.9777 75.7546 55.9777 76.192V77.264H53.4657V76.32H46.9377V78.336H53.6097C54.0364 78.336 54.4257 78.4426 54.7777 78.656C55.1404 78.8693 55.4284 79.1573 55.6417 79.52C55.8657 79.872 55.9777 80.2666 55.9777 80.704V82.976C55.9777 83.4026 55.8657 83.7973 55.6417 84.16C55.4284 84.5227 55.1404 84.8107 54.7777 85.024C54.4257 85.2373 54.0364 85.344 53.6097 85.344H46.8257Z" fill="#D48351"/>
<path d="M57.7717 85.344V73.824H68.4117V76.32H60.2837V78.336H66.8277V80.832H60.2837V82.848H68.4117V85.344H57.7717Z" fill="#D48351"/>
<path d="M69.9897 85.344V73.824H72.5497L78.9977 81.504V73.824H81.5097V85.344H78.9497L72.4697 77.632V85.344H69.9897Z" fill="#D48351"/>
<path d="M89.6382 85.344L82.9662 73.824H85.8462L90.6782 82.192L95.5102 73.824H98.3742L91.7022 85.344H89.6382Z" fill="#D48351"/>
<path d="M101.685 85.344C101.258 85.344 100.864 85.2373 100.501 85.024C100.138 84.8107 99.8504 84.5227 99.6371 84.16C99.4238 83.7973 99.3171 83.4026 99.3171 82.976V76.192C99.3171 75.7546 99.4238 75.36 99.6371 75.008C99.8504 74.6453 100.138 74.3573 100.501 74.144C100.864 73.9306 101.258 73.824 101.685 73.824H108.469C108.896 73.824 109.285 73.9306 109.637 74.144C110 74.3573 110.288 74.6453 110.501 75.008C110.725 75.36 110.837 75.7546 110.837 76.192V82.976C110.837 83.4026 110.725 83.7973 110.501 84.16C110.288 84.5227 110 84.8107 109.637 85.024C109.285 85.2373 108.896 85.344 108.469 85.344H101.685ZM101.797 82.848H108.325V76.32H101.797V82.848Z" fill="#D48351"/>
<path d="M112.615 85.344V73.808H115.095V82.848H124.135V85.344H112.615Z" fill="#D48351"/>
<path d="M128.185 85.344L121.513 73.824H124.393L129.225 82.192L134.057 73.824H136.921L130.249 85.344H128.185Z" fill="#D48351"/>
<path d="M137.928 85.344V73.824H148.568V76.32H140.44V78.336H146.984V80.832H140.44V82.848H148.568V85.344H137.928Z" fill="#D48351"/>
<path d="M150.178 85.344V73.824H159.314C159.751 73.824 160.146 73.9306 160.498 74.144C160.861 74.3573 161.149 74.6453 161.362 75.008C161.586 75.36 161.698 75.7546 161.698 76.192V82.976C161.698 83.4026 161.586 83.7973 161.362 84.16C161.149 84.5227 160.861 84.8107 160.498 85.024C160.146 85.2373 159.751 85.344 159.314 85.344H150.178ZM152.642 82.848H159.186V76.32H152.642V82.848Z" fill="#D48351"/>
<path d="M165.826 85.344C165.399 85.344 165.004 85.2373 164.642 85.024C164.279 84.8107 163.991 84.5227 163.778 84.16C163.564 83.7973 163.458 83.4026 163.458 82.976V76.192C163.458 75.7546 163.564 75.36 163.778 75.008C163.991 74.6453 164.279 74.3573 164.642 74.144C165.004 73.9306 165.399 73.824 165.826 73.824H172.61C173.036 73.824 173.426 73.9306 173.778 74.144C174.14 74.3573 174.428 74.6453 174.642 75.008C174.866 75.36 174.978 75.7546 174.978 76.192V82.976C174.978 83.4026 174.866 83.7973 174.642 84.16C174.428 84.5227 174.14 84.8107 173.778 85.024C173.426 85.2373 173.036 85.344 172.61 85.344H165.826ZM165.938 82.848H172.466V76.32H165.938V82.848Z" fill="#D48351"/>
<path d="M185.684 85.344L182.34 81.36H185.588L188.244 84.496V85.344H185.684ZM176.74 85.344V73.84H185.876C186.313 73.84 186.708 73.9466 187.06 74.16C187.422 74.3733 187.71 74.6613 187.924 75.024C188.148 75.3867 188.26 75.7813 188.26 76.208V79.184C188.26 79.6107 188.148 80.0053 187.924 80.368C187.71 80.7306 187.422 81.0187 187.06 81.232C186.708 81.4453 186.313 81.552 185.876 81.552L179.22 81.568V85.344H176.74ZM179.22 79.056H185.748V76.32H179.22V79.056Z" fill="#D48351"/>
<path d="M195.131 85.344V73.824H205.771V76.32H197.643V78.336H204.187V80.832H197.643V85.344H195.131Z" fill="#D48351"/>
<path d="M215.606 85.344L212.262 81.36H215.51L218.166 84.496V85.344H215.606ZM206.662 85.344V73.84H215.798C216.235 73.84 216.63 73.9466 216.982 74.16C217.344 74.3733 217.632 74.6613 217.846 75.024C218.07 75.3867 218.182 75.7813 218.182 76.208V79.184C218.182 79.6107 218.07 80.0053 217.846 80.368C217.632 80.7306 217.344 81.0187 216.982 81.232C216.63 81.4453 216.235 81.552 215.798 81.552L209.142 81.568V85.344H206.662ZM209.142 79.056H215.67V76.32H209.142V79.056Z" fill="#D48351"/>
<path d="M222.201 85.344C221.774 85.344 221.379 85.2373 221.017 85.024C220.654 84.8107 220.366 84.5227 220.153 84.16C219.939 83.7973 219.833 83.4026 219.833 82.976V76.192C219.833 75.7546 219.939 75.36 220.153 75.008C220.366 74.6453 220.654 74.3573 221.017 74.144C221.379 73.9306 221.774 73.824 222.201 73.824H228.985C229.411 73.824 229.801 73.9306 230.153 74.144C230.515 74.3573 230.803 74.6453 231.017 75.008C231.241 75.36 231.353 75.7546 231.353 76.192V82.976C231.353 83.4026 231.241 83.7973 231.017 84.16C230.803 84.5227 230.515 84.8107 230.153 85.024C229.801 85.2373 229.411 85.344 228.985 85.344H222.201ZM222.313 82.848H228.841V76.32H222.313V82.848Z" fill="#D48351"/>
<path d="M233.115 85.344V73.824H235.675L242.123 81.504V73.824H244.635V85.344H242.075L235.595 77.632V85.344H233.115Z" fill="#D48351"/>
<path d="M250.363 85.344V76.32H245.851V73.824H257.371V76.32H252.859V85.344H250.363Z" fill="#D48351"/>
<path d="M263.756 85.344V73.824H274.396V76.32H266.268V78.336H272.812V80.832H266.268V82.848H274.396V85.344H263.756Z" fill="#D48351"/>
<path d="M275.974 85.344V73.824H278.534L284.982 81.504V73.824H287.494V85.344H284.934L278.454 77.632V85.344H275.974Z" fill="#D48351"/>
<path d="M289.319 85.344V73.824H298.455C298.892 73.824 299.287 73.9306 299.639 74.144C300.001 74.3573 300.289 74.6453 300.503 75.008C300.727 75.36 300.839 75.7546 300.839 76.192V82.976C300.839 83.4026 300.727 83.7973 300.503 84.16C300.289 84.5227 300.001 84.8107 299.639 85.024C299.287 85.2373 298.892 85.344 298.455 85.344H289.319ZM291.783 82.848H298.327V76.32H291.783V82.848Z" fill="#D48351"/>
<path d="M310.059 85.344C309.643 85.344 309.259 85.2427 308.907 85.04C308.555 84.8267 308.272 84.5493 308.059 84.208C307.845 83.856 307.739 83.4613 307.739 83.024V80.064C307.739 79.8293 307.797 79.584 307.915 79.328C308.032 79.072 308.203 78.8693 308.427 78.72C308.352 78.5387 308.315 78.256 308.315 77.872V76.16C308.315 75.7227 308.421 75.328 308.635 74.976C308.848 74.624 309.131 74.3466 309.483 74.144C309.835 73.9413 310.219 73.84 310.635 73.84H316.283C316.656 73.84 317.008 73.9253 317.339 74.096C317.669 74.256 317.947 74.48 318.171 74.768C318.395 75.056 318.539 75.3813 318.603 75.744V77.152H316.155V76.304H310.763V78.032L316.587 80.96V79.44H319.035V82.016L320.875 83.104V85.632L318.635 84.352C318.411 84.6507 318.128 84.8906 317.787 85.072C317.445 85.2533 317.088 85.344 316.715 85.344H310.059ZM310.187 82.896H314.795C314.912 82.896 315.019 82.896 315.115 82.896C315.221 82.896 315.328 82.896 315.435 82.896L310.459 80.384L310.219 80.256C310.197 80.256 310.187 80.2987 310.187 80.384C310.187 80.4693 310.187 80.6773 310.187 81.008V82.896Z" fill="#D48351"/>
<path d="M330.294 85.344C329.868 85.344 329.473 85.2373 329.11 85.024C328.748 84.8107 328.46 84.5227 328.246 84.16C328.033 83.7973 327.926 83.4026 327.926 82.976V73.824H330.406V82.848H336.934V73.824H339.446V82.976C339.446 83.4026 339.334 83.7973 339.11 84.16C338.897 84.5227 338.609 84.8107 338.246 85.024C337.895 85.2373 337.505 85.344 337.078 85.344H330.294Z" fill="#D48351"/>
<path d="M340.808 85.344V73.824H343.256V85.344H340.808Z" fill="#D48351"/>
<path d="M349.819 85.344V73.824H358.955C359.392 73.824 359.787 73.9306 360.139 74.144C360.501 74.3573 360.789 74.6453 361.003 75.008C361.227 75.36 361.339 75.7546 361.339 76.192V82.976C361.339 83.4026 361.227 83.7973 361.003 84.16C360.789 84.5227 360.501 84.8107 360.139 85.024C359.787 85.2373 359.392 85.344 358.955 85.344H349.819ZM352.283 82.848H358.827V76.32H352.283V82.848Z" fill="#D48351"/>
<path d="M363.162 85.344V73.824H373.802V76.32H365.674V78.336H372.218V80.832H365.674V82.848H373.802V85.344H363.162Z" fill="#D48351"/>
<path d="M377.716 85.344C377.29 85.344 376.895 85.2373 376.532 85.024C376.17 84.8107 375.882 84.5227 375.668 84.16C375.455 83.7973 375.348 83.4026 375.348 82.976V81.904H377.828V82.848H384.356V80.832H377.716C377.29 80.832 376.895 80.7253 376.532 80.512C376.17 80.2986 375.882 80.016 375.668 79.664C375.455 79.3013 375.348 78.9013 375.348 78.464V76.192C375.348 75.7546 375.455 75.36 375.668 75.008C375.882 74.6453 376.17 74.3573 376.532 74.144C376.895 73.9306 377.29 73.824 377.716 73.824H384.5C384.927 73.824 385.316 73.9306 385.668 74.144C386.031 74.3573 386.319 74.6453 386.532 75.008C386.756 75.36 386.868 75.7546 386.868 76.192V77.264H384.356V76.32H377.828V78.336H384.5C384.927 78.336 385.316 78.4426 385.668 78.656C386.031 78.8693 386.319 79.1573 386.532 79.52C386.756 79.872 386.868 80.2666 386.868 80.704V82.976C386.868 83.4026 386.756 83.7973 386.532 84.16C386.319 84.5227 386.031 84.8107 385.668 85.024C385.316 85.2373 384.927 85.344 384.5 85.344H377.716Z" fill="#D48351"/>
<path d="M388.23 85.344V73.824H390.678V85.344H388.23Z" fill="#D48351"/>
<path d="M394.42 85.344C393.994 85.344 393.599 85.2373 393.236 85.024C392.874 84.8107 392.586 84.5227 392.372 84.16C392.159 83.7973 392.052 83.4026 392.052 82.976V76.192C392.052 75.7546 392.159 75.36 392.372 75.008C392.586 74.6453 392.874 74.3573 393.236 74.144C393.599 73.9306 393.994 73.824 394.42 73.824H401.188C401.626 73.824 402.02 73.9306 402.372 74.144C402.735 74.3573 403.023 74.6453 403.236 75.008C403.46 75.36 403.572 75.7546 403.572 76.192V77.28H401.06V76.32H394.532V82.848H401.06V81.12H398.564V78.624H403.572V82.976C403.572 83.4026 403.46 83.7973 403.236 84.16C403.023 84.5227 402.735 84.8107 402.372 85.024C402.02 85.2373 401.626 85.344 401.188 85.344H394.42Z" fill="#D48351"/>
<path d="M405.333 85.344V73.824H407.893L414.341 81.504V73.824H416.853V85.344H414.293L407.813 77.632V85.344H405.333Z" fill="#D48351"/>
<path d="M418.678 85.344V73.824H429.318V76.32H421.19V78.336H427.734V80.832H421.19V82.848H429.318V85.344H418.678Z" fill="#D48351"/>
<path d="M439.84 85.344L436.496 81.36H439.744L442.4 84.496V85.344H439.84ZM430.896 85.344V73.84H440.032C440.469 73.84 440.864 73.9466 441.216 74.16C441.579 74.3733 441.867 74.6613 442.08 75.024C442.304 75.3867 442.416 75.7813 442.416 76.208V79.184C442.416 79.6107 442.304 80.0053 442.08 80.368C441.867 80.7306 441.579 81.0187 441.216 81.232C440.864 81.4453 440.469 81.552 440.032 81.552L433.376 81.568V85.344H430.896ZM433.376 79.056H439.904V76.32H433.376V79.056Z" fill="#D48351"/>
</svg>
