<svg width="412" height="86" viewBox="0 0 412 86" fill="none" xmlns="http://www.w3.org/2000/svg">
<path d="M39.024 35.32H33.984L32.184 49.144H36.36V56.704H31.176L29.808 67H20.376L21.744 56.704H14.544L13.176 67H3.74402L5.11202 56.704H1.08002V49.144H6.12002L7.92002 35.32H3.74402V27.76H8.92802L10.152 18.328H19.584L18.36 27.76H25.56L26.784 18.328H36.216L34.992 27.76H39.024V35.32ZM22.752 49.144L24.552 35.32H17.352L15.552 49.144H22.752Z" fill="black"/>
<path d="M70.335 67L67.743 56.272H53.199L50.679 67H38.439L53.487 17.104H67.815L82.863 67H70.335ZM55.215 47.704H65.727L60.471 25.672L55.215 47.704Z" fill="black"/>
<path d="M96.4598 68.224C93.1478 68.224 90.5558 67.288 88.6838 65.416C86.8598 63.496 85.9478 60.784 85.9478 57.28V13.576L97.3238 12.352V56.848C97.3238 58.432 97.9718 59.224 99.2678 59.224C99.9398 59.224 100.564 59.104 101.14 58.864L103.372 66.928C101.308 67.792 99.0038 68.224 96.4598 68.224Z" fill="black"/>
<path d="M139.884 28.768L127.86 67H114.396L102.084 28.768H114.468L121.236 58.36L128.292 28.768H139.884Z" fill="black"/>
<path d="M176.667 47.128C176.667 48.712 176.595 50.08 176.451 51.232H152.763C153.147 54.448 154.059 56.704 155.499 58C156.939 59.296 158.931 59.944 161.475 59.944C163.011 59.944 164.499 59.68 165.939 59.152C167.379 58.576 168.939 57.712 170.619 56.56L175.299 62.896C170.835 66.448 165.867 68.224 160.395 68.224C154.203 68.224 149.451 66.4 146.139 62.752C142.827 59.104 141.171 54.208 141.171 48.064C141.171 44.176 141.867 40.696 143.259 37.624C144.651 34.504 146.691 32.056 149.379 30.28C152.067 28.456 155.283 27.544 159.027 27.544C164.547 27.544 168.867 29.272 171.987 32.728C175.107 36.184 176.667 40.984 176.667 47.128ZM165.507 43.888C165.411 38.032 163.347 35.104 159.315 35.104C157.347 35.104 155.811 35.824 154.707 37.264C153.651 38.704 153.003 41.08 152.763 44.392H165.507V43.888Z" fill="black"/>
<path d="M196.522 27.544C199.258 27.544 201.826 27.952 204.226 28.768C206.626 29.584 208.738 30.736 210.562 32.224L206.386 38.632C203.266 36.664 200.122 35.68 196.954 35.68C195.466 35.68 194.314 35.944 193.498 36.472C192.73 36.952 192.346 37.648 192.346 38.56C192.346 39.28 192.514 39.88 192.85 40.36C193.234 40.792 193.978 41.248 195.082 41.728C196.186 42.208 197.89 42.784 200.194 43.456C204.178 44.608 207.13 46.12 209.05 47.992C211.018 49.816 212.002 52.36 212.002 55.624C212.002 58.216 211.258 60.472 209.77 62.392C208.282 64.264 206.242 65.704 203.65 66.712C201.058 67.72 198.178 68.224 195.01 68.224C191.794 68.224 188.794 67.72 186.01 66.712C183.274 65.704 180.946 64.312 179.026 62.536L184.57 56.344C187.786 58.84 191.17 60.088 194.722 60.088C196.45 60.088 197.794 59.776 198.754 59.152C199.762 58.528 200.266 57.64 200.266 56.488C200.266 55.576 200.074 54.856 199.69 54.328C199.306 53.8 198.562 53.32 197.458 52.888C196.354 52.408 194.602 51.832 192.202 51.16C188.41 50.056 185.578 48.52 183.706 46.552C181.834 44.584 180.898 42.136 180.898 39.208C180.898 37 181.522 35.032 182.77 33.304C184.066 31.528 185.89 30.136 188.242 29.128C190.642 28.072 193.402 27.544 196.522 27.544Z" fill="black"/>
<path d="M212.712 79.312V70.384H248.712V79.312H212.712Z" fill="black"/>
<path d="M275.462 27.544C280.262 27.544 283.838 29.32 286.19 32.872C288.542 36.424 289.718 41.392 289.718 47.776C289.718 51.712 289.094 55.24 287.846 58.36C286.646 61.432 284.894 63.856 282.59 65.632C280.286 67.36 277.598 68.224 274.526 68.224C270.686 68.224 267.59 66.904 265.238 64.264V81.76L253.862 82.984V28.768H263.87L264.446 33.016C265.934 31.144 267.638 29.776 269.558 28.912C271.478 28 273.446 27.544 275.462 27.544ZM271.07 59.872C275.63 59.872 277.91 55.888 277.91 47.92C277.91 43.408 277.406 40.288 276.398 38.56C275.39 36.784 273.878 35.896 271.862 35.896C270.566 35.896 269.342 36.28 268.19 37.048C267.086 37.816 266.102 38.92 265.238 40.36V56.488C266.774 58.744 268.718 59.872 271.07 59.872Z" fill="black"/>
<path d="M319.215 27.544C322.527 27.544 325.119 28.552 326.991 30.568C328.863 32.584 329.799 35.416 329.799 39.064V67H318.423V41.008C318.423 39.088 318.111 37.768 317.487 37.048C316.863 36.28 315.975 35.896 314.823 35.896C312.519 35.896 310.311 37.528 308.199 40.792V67H296.823V13.576L308.199 12.424V32.872C309.783 31.096 311.463 29.776 313.239 28.912C315.015 28 317.007 27.544 319.215 27.544Z" fill="black"/>
<path d="M373.586 31C371.09 32.008 367.418 32.512 362.57 32.512C365.066 33.568 366.89 34.864 368.042 36.4C369.194 37.936 369.77 39.928 369.77 42.376C369.77 44.824 369.122 47.032 367.826 49C366.53 50.92 364.658 52.432 362.21 53.536C359.81 54.64 356.978 55.192 353.714 55.192C352.178 55.192 350.714 55.048 349.322 54.76C348.938 54.952 348.626 55.264 348.386 55.696C348.194 56.08 348.098 56.488 348.098 56.92C348.098 57.64 348.362 58.216 348.89 58.648C349.466 59.032 350.594 59.224 352.274 59.224H358.034C360.962 59.224 363.53 59.704 365.738 60.664C367.946 61.624 369.65 62.944 370.85 64.624C372.05 66.304 372.65 68.2 372.65 70.312C372.65 74.296 370.922 77.392 367.466 79.6C364.058 81.856 359.114 82.984 352.634 82.984C347.978 82.984 344.306 82.48 341.618 81.472C338.93 80.512 337.034 79.144 335.93 77.368C334.874 75.592 334.346 73.36 334.346 70.672H344.57C344.57 71.824 344.786 72.736 345.218 73.408C345.698 74.08 346.538 74.584 347.738 74.92C348.938 75.256 350.666 75.424 352.922 75.424C356.042 75.424 358.202 75.04 359.402 74.272C360.602 73.552 361.202 72.496 361.202 71.104C361.202 69.952 360.746 69.04 359.834 68.368C358.922 67.696 357.554 67.36 355.73 67.36H350.186C346.25 67.36 343.298 66.664 341.33 65.272C339.41 63.832 338.45 62.008 338.45 59.8C338.45 58.408 338.858 57.064 339.674 55.768C340.49 54.424 341.594 53.32 342.986 52.456C340.586 51.16 338.834 49.648 337.73 47.92C336.674 46.144 336.146 44.008 336.146 41.512C336.146 37.24 337.682 33.856 340.754 31.36C343.826 28.816 347.882 27.544 352.922 27.544C356.762 27.64 360.002 27.256 362.642 26.392C365.33 25.528 368.09 24.256 370.922 22.576L373.586 31ZM353.21 35.032C351.434 35.032 350.018 35.608 348.962 36.76C347.954 37.864 347.45 39.4 347.45 41.368C347.45 43.432 347.954 45.04 348.962 46.192C350.018 47.296 351.434 47.848 353.21 47.848C355.082 47.848 356.498 47.296 357.458 46.192C358.466 45.088 358.97 43.432 358.97 41.224C358.97 37.096 357.05 35.032 353.21 35.032Z" fill="black"/>
<path d="M406.731 55.912C406.731 57.352 406.923 58.408 407.307 59.08C407.739 59.752 408.411 60.256 409.323 60.592L406.947 68.008C404.595 67.816 402.675 67.312 401.187 66.496C399.699 65.632 398.547 64.288 397.731 62.464C395.235 66.304 391.395 68.224 386.211 68.224C382.419 68.224 379.395 67.12 377.139 64.912C374.883 62.704 373.755 59.824 373.755 56.272C373.755 52.096 375.291 48.904 378.363 46.696C381.435 44.488 385.875 43.384 391.683 43.384H395.571V41.728C395.571 39.472 395.091 37.936 394.131 37.12C393.171 36.256 391.491 35.824 389.091 35.824C387.843 35.824 386.331 36.016 384.555 36.4C382.779 36.736 380.955 37.216 379.083 37.84L376.491 30.352C378.891 29.44 381.339 28.744 383.835 28.264C386.379 27.784 388.731 27.544 390.891 27.544C396.363 27.544 400.371 28.672 402.915 30.928C405.459 33.184 406.731 36.568 406.731 41.08V55.912ZM389.523 60.088C392.115 60.088 394.131 58.864 395.571 56.416V49.648H392.763C390.171 49.648 388.227 50.104 386.931 51.016C385.683 51.928 385.059 53.344 385.059 55.264C385.059 56.8 385.443 58 386.211 58.864C387.027 59.68 388.131 60.088 389.523 60.088Z" fill="black"/>
</svg>
