<svg width="131" height="131" viewBox="0 0 131 131" fill="none" xmlns="http://www.w3.org/2000/svg">
<path d="M88.5263 88.4348C75.8596 101.152 55.2818 101.193 42.5644 88.5265C29.8471 75.8598 29.806 55.282 42.4727 42.5647C55.1394 29.8473 75.7173 29.8063 88.4346 42.473C101.152 55.1397 101.193 75.7175 88.5263 88.4348Z" fill="#181625"/>
<path fill-rule="evenodd" clip-rule="evenodd" d="M84.5546 47.0769C84.9459 47.4666 84.9472 48.0998 84.5575 48.4911L66.8691 66.2501L83.9177 83.1425C84.31 83.5312 84.3129 84.1644 83.9242 84.5567C83.5354 84.949 82.9023 84.9519 82.51 84.5632L65.4577 67.6672L48.567 84.6254C48.1773 85.0167 47.5441 85.018 47.1528 84.6282C46.7615 84.2385 46.7603 83.6053 47.15 83.214L64.037 66.2595L46.282 48.6671C45.8897 48.2783 45.8868 47.6452 46.2755 47.2529C46.6642 46.8605 47.2974 46.8576 47.6897 47.2464L65.4484 64.8424L83.1404 47.0797C83.5302 46.6884 84.1633 46.6871 84.5546 47.0769Z" fill="white"/>
</svg>
